<svg width="1218" height="629" viewBox="0 0 1218 629" fill="none" xmlns="http://www.w3.org/2000/svg">
<path d="M524.118 15.544C524.118 19 522.294 22.264 518.646 25.336C514.998 28.408 511.35 30.424 507.702 31.384C503.67 32.344 501.078 31.48 499.926 28.792C499.158 26.872 500.406 25.624 503.67 25.048C510.582 23.896 514.038 20.92 514.038 16.12C514.038 15.352 513.846 14.488 513.462 13.528C511.926 9.49599 504.438 7.47999 490.998 7.47999C481.398 7.47999 471.894 9.01599 462.486 12.088C434.454 21.112 420.438 36.184 420.438 57.304C420.438 66.328 424.374 76.696 432.246 88.408C439.35 98.2 446.55 107.896 453.846 117.496C461.142 128.824 464.31 139.096 463.35 148.312C461.238 168.472 450.966 186.712 432.534 203.032C415.446 218.2 394.038 229.24 368.31 236.152C353.526 240.184 338.454 242.2 323.094 242.2C302.166 242.2 283.83 238.744 268.086 231.832C251.766 224.536 241.11 214.744 236.118 202.456C234.006 197.272 232.95 192.184 232.95 187.192C232.95 164.92 249.942 147.544 283.926 135.064C305.046 127.192 331.254 123.256 362.55 123.256C382.326 123.256 398.454 124.408 410.934 126.712C417.27 127.864 419.862 129.496 418.71 131.608C417.558 133.912 414.294 134.68 408.918 133.912C403.926 133.144 397.974 132.76 391.062 132.76C359.382 132.76 328.566 138.904 298.614 151.192C267.702 163.672 252.246 178.744 252.246 196.408C252.246 199.096 252.726 201.784 253.686 204.472C256.95 213.688 265.206 220.984 278.454 226.36C291.702 231.544 307.062 234.136 324.534 234.136C339.318 234.136 353.43 232.216 366.87 228.376C392.982 220.888 413.622 209.752 428.79 194.968C443.19 180.76 450.39 165.688 450.39 149.752C450.39 143.224 446.838 134.68 439.734 124.12C433.014 114.328 426.294 104.536 419.574 94.744C412.278 82.648 408.63 71.608 408.63 61.624C408.63 56.632 409.494 51.736 411.222 46.936C416.79 30.616 428.31 18.424 445.782 10.36C458.07 4.59999 472.278 1.33599 488.406 0.567997C495.51 0.18399 502.518 0.951986 509.43 2.87198C519.222 5.36799 524.118 9.59199 524.118 15.544ZM680.403 169.624C681.747 171.16 681.555 172.888 679.827 174.808C673.491 182.488 664.659 190.648 653.331 199.288C642.003 207.928 631.923 212.248 623.091 212.248C613.107 212.248 605.715 208.6 600.915 201.304C588.051 213.4 575.571 222.52 563.475 228.664C552.147 234.424 543.123 236.824 536.403 235.864C526.035 234.52 520.755 228.184 520.563 216.856C514.227 222.232 507.315 226.648 499.827 230.104C490.995 234.328 483.891 236.056 478.515 235.288C468.339 233.944 463.251 227.608 463.251 216.28C463.251 214.552 463.347 212.92 463.539 211.384C464.883 202.552 473.907 187.864 490.611 167.32C496.563 160.216 504.435 151.192 514.227 140.248C524.211 129.112 529.875 123.16 531.219 122.392C532.563 121.624 534.291 121.24 536.403 121.24C538.899 121.048 540.147 121.72 540.147 123.256C540.147 125.176 536.499 131.224 529.203 141.4C521.907 151.384 514.611 161.368 507.315 171.352C493.299 191.512 485.811 206.392 484.851 215.992C484.083 222.328 485.811 225.496 490.035 225.496C491.571 225.496 493.299 225.016 495.219 224.056C510.579 217.528 529.491 199.48 551.955 169.912C562.899 154.552 574.515 138.808 586.803 122.68C588.339 121.72 590.163 121.24 592.275 121.24C594.771 121.048 596.019 121.72 596.019 123.256C596.019 124.984 592.467 131.032 585.363 141.4C574.035 157.528 567.219 167.512 564.915 171.352C556.851 184.024 551.571 192.664 549.075 197.272C545.235 204.376 543.027 210.232 542.451 214.84C541.683 221.56 543.891 224.92 549.075 224.92C559.635 224.92 575.859 214.552 597.747 193.816C596.787 190.36 596.307 186.616 596.307 182.584C596.307 172.408 598.803 162.52 603.795 152.92C609.171 142.552 616.083 134.104 624.531 127.576C632.211 121.816 639.027 118.936 644.979 118.936C649.587 118.936 651.891 120.952 651.891 124.984C651.891 133.048 646.227 145.24 634.899 161.56C625.875 174.616 616.659 185.848 607.251 195.256C610.707 201.976 616.563 205.336 624.819 205.336C632.883 205.336 642.579 200.344 653.907 190.36C662.163 183.064 669.171 176.248 674.931 169.912C676.851 167.608 678.675 167.512 680.403 169.624ZM636.339 129.88C629.043 129.88 620.691 138.808 611.283 156.664C605.907 166.648 603.795 176.728 604.947 186.904C611.859 179.8 618.867 171.16 625.971 160.984C634.995 148.12 639.507 138.904 639.507 133.336C639.507 131.032 638.451 129.88 636.339 129.88ZM798.348 167.896C800.268 169.432 799.788 171.928 796.908 175.384C787.692 186.328 773.004 198.904 752.844 213.112C728.652 230.2 706.86 238.744 687.468 238.744C680.172 238.744 674.028 237.208 669.036 234.136C661.164 229.144 657.228 221.464 657.228 211.096C657.228 194.008 666.348 176.056 684.588 157.24C695.724 145.912 708.108 136.6 721.74 129.304C735.372 122.008 746.796 118.36 756.012 118.36C764.652 118.36 768.972 120.952 768.972 126.136C768.972 131.32 764.556 138.808 755.724 148.6C747.852 157.048 739.596 164.344 730.956 170.488C716.172 181.048 700.524 188.056 684.012 191.512C682.092 197.464 681.132 202.744 681.132 207.352C681.132 214.648 683.532 220.024 688.332 223.48C692.556 226.36 697.548 227.8 703.308 227.8C715.98 227.8 731.052 221.56 748.524 209.08C765.42 196.984 779.628 184.312 791.148 171.064C794.412 167.608 796.812 166.552 798.348 167.896ZM757.164 124.696C751.98 124.696 744.492 127.576 734.7 133.336C724.332 139.48 714.732 147.064 705.9 156.088C698.412 163.768 692.172 173.08 687.18 184.024C700.236 180.568 713.388 174.232 726.636 165.016C735.084 159.064 743.052 152.248 750.54 144.568C758.22 136.888 762.06 131.32 762.06 127.864C762.06 125.752 760.428 124.696 757.164 124.696ZM915.911 167.896C917.831 169.432 917.351 171.928 914.471 175.384C905.255 186.328 890.567 198.904 870.407 213.112C846.215 230.2 824.423 238.744 805.031 238.744C797.735 238.744 791.591 237.208 786.599 234.136C778.727 229.144 774.791 221.464 774.791 211.096C774.791 194.008 783.911 176.056 802.151 157.24C813.287 145.912 825.671 136.6 839.303 129.304C852.935 122.008 864.359 118.36 873.575 118.36C882.215 118.36 886.535 120.952 886.535 126.136C886.535 131.32 882.119 138.808 873.287 148.6C865.415 157.048 857.159 164.344 848.519 170.488C833.735 181.048 818.087 188.056 801.575 191.512C799.655 197.464 798.695 202.744 798.695 207.352C798.695 214.648 801.095 220.024 805.895 223.48C810.119 226.36 815.111 227.8 820.871 227.8C833.543 227.8 848.615 221.56 866.087 209.08C882.983 196.984 897.191 184.312 908.711 171.064C911.975 167.608 914.375 166.552 915.911 167.896ZM874.727 124.696C869.543 124.696 862.055 127.576 852.263 133.336C841.895 139.48 832.295 147.064 823.463 156.088C815.975 163.768 809.735 173.08 804.743 184.024C817.799 180.568 830.951 174.232 844.199 165.016C852.647 159.064 860.615 152.248 868.103 144.568C875.783 136.888 879.623 131.32 879.623 127.864C879.623 125.752 877.991 124.696 874.727 124.696ZM1004.39 57.304C998.049 65.752 985.665 83.32 967.233 110.008H988.257C990.561 110.008 991.905 110.584 992.289 111.736C992.481 112.888 991.713 114.136 989.985 115.48C988.257 116.824 986.241 117.496 983.937 117.496H962.049C958.785 122.68 953.505 130.648 946.209 141.4C921.441 178.456 908.001 203.512 905.889 216.568C904.737 222.328 906.465 225.208 911.073 225.208C912.609 225.208 914.241 224.824 915.969 224.056C925.377 220.408 937.089 212.824 951.105 201.304C968.577 187.288 980.289 176.536 986.241 169.048C988.161 166.552 990.177 166.456 992.289 168.76C993.249 170.104 992.769 171.928 990.849 174.232C982.593 184.216 969.633 195.832 951.969 209.08C926.625 227.896 909.057 236.632 899.265 235.288C888.705 233.944 883.425 228.28 883.425 218.296C883.425 216.184 883.713 213.88 884.289 211.384C886.593 201.592 891.489 190.84 898.977 179.128C903.777 171.832 913.953 157.912 929.505 137.368C932.769 132.952 937.761 126.328 944.481 117.496H924.321C921.825 117.496 920.577 116.824 920.577 115.48C920.385 114.136 921.153 112.888 922.881 111.736C924.609 110.584 926.625 110.008 928.929 110.008H950.241C973.857 79.48 988.833 61.72 995.169 56.728C997.665 54.616 1000.55 54.232 1003.81 55.576C1004.77 55.96 1004.96 56.536 1004.39 57.304ZM216.737 383.208C216.737 397.8 203.873 421.896 178.145 455.496C162.401 476.232 135.905 506.376 98.6569 545.928C86.1769 568.392 79.9369 583.848 79.9369 592.296C79.9369 596.904 81.5689 599.208 84.8329 599.208C92.3209 599.208 105.665 591.336 124.865 575.592C140.801 562.536 152.609 551.784 160.289 543.336C161.249 542.376 162.305 541.896 163.457 541.896C165.377 541.896 166.337 542.952 166.337 545.064C166.337 546.216 165.857 547.368 164.897 548.52C155.105 559.08 142.433 570.312 126.881 582.216C103.265 600.264 85.9849 609.288 75.0409 609.288C70.4329 609.288 66.6889 608.04 63.8089 605.544C58.6249 600.936 56.8009 594.6 58.3369 586.536C41.0569 601.896 28.0969 609.576 19.4569 609.576C15.4249 609.576 11.5849 608.136 7.93688 605.256C3.13688 601.608 0.736875 595.656 0.736875 587.4C0.736875 573.576 8.60888 557.352 24.3529 538.728C37.2169 523.56 51.8089 511.656 68.1289 503.016C81.9529 495.912 93.7609 492.36 103.553 492.36C107.201 492.36 109.889 492.936 111.617 494.088L149.633 433.608C174.977 392.904 193.793 372.552 206.081 372.552C213.185 372.552 216.737 376.104 216.737 383.208ZM205.217 382.632C199.457 382.632 186.785 398.76 167.201 431.016C154.337 453.096 141.377 475.176 128.321 497.256L115.361 517.992C140.129 490.92 158.849 469.224 171.521 452.904C180.737 440.808 188.993 428.52 196.289 416.04C204.353 402.216 208.385 392.52 208.385 386.952C208.385 384.072 207.329 382.632 205.217 382.632ZM107.585 500.712C105.665 499.368 103.553 498.696 101.249 498.696C94.1449 498.696 84.5449 503.304 72.4489 512.52C60.5449 521.544 49.8889 532.104 40.4809 544.2C26.0809 562.824 18.8809 578.376 18.8809 590.856C18.8809 597.768 21.1849 601.224 25.7929 601.224C31.7449 601.224 44.4169 591.144 63.8089 570.984C68.6089 563.304 75.1369 552.744 83.3929 539.304C87.2329 532.968 95.2969 520.104 107.585 500.712ZM283.098 541.896C285.018 543.432 284.538 545.928 281.658 549.384C272.442 560.328 257.754 572.904 237.594 587.112C213.402 604.2 191.61 612.744 172.218 612.744C164.922 612.744 158.778 611.208 153.786 608.136C145.914 603.144 141.978 595.464 141.978 585.096C141.978 568.008 151.098 550.056 169.338 531.24C180.474 519.912 192.858 510.6 206.49 503.304C220.122 496.008 231.546 492.36 240.762 492.36C249.402 492.36 253.722 494.952 253.722 500.136C253.722 505.32 249.306 512.808 240.474 522.6C232.602 531.048 224.346 538.344 215.706 544.488C200.922 555.048 185.274 562.056 168.762 565.512C166.842 571.464 165.882 576.744 165.882 581.352C165.882 588.648 168.282 594.024 173.082 597.48C177.306 600.36 182.298 601.8 188.058 601.8C200.73 601.8 215.802 595.56 233.274 583.08C250.17 570.984 264.378 558.312 275.898 545.064C279.162 541.608 281.562 540.552 283.098 541.896ZM241.914 498.696C236.73 498.696 229.242 501.576 219.45 507.336C209.082 513.48 199.482 521.064 190.65 530.088C183.162 537.768 176.922 547.08 171.93 558.024C184.986 554.568 198.138 548.232 211.386 539.016C219.834 533.064 227.802 526.248 235.29 518.568C242.97 510.888 246.81 505.32 246.81 501.864C246.81 499.752 245.178 498.696 241.914 498.696ZM910.77 387.816C910.77 396.648 901.074 414.024 881.682 439.944C863.442 464.328 843.378 487.272 821.49 508.776L814.002 516.264C789.426 562.344 777.138 593.544 777.138 609.864C777.138 615.048 779.442 617.64 784.05 617.64C788.466 617.64 793.362 614.856 798.738 609.288C804.114 603.72 807.186 601.128 807.954 601.512C809.106 601.896 808.914 603.336 807.378 605.832C804.69 609.864 801.138 613.608 796.722 617.064C791.346 621.288 786.066 623.4 780.882 623.4C779.154 623.4 777.426 623.112 775.698 622.536C769.938 620.616 767.058 615.048 767.058 605.832C767.058 592.008 773.49 571.08 786.354 543.048C738.354 587.4 703.218 609.576 680.946 609.576C676.722 609.576 672.882 608.808 669.426 607.272C661.746 603.816 657.906 596.328 657.906 584.808C657.906 568.104 665.682 543.048 681.234 509.64C628.818 567.624 575.154 604.296 520.242 619.656C500.85 625.224 481.458 628.008 462.066 628.008C439.602 628.008 420.594 624.264 405.042 616.776C387.762 608.328 376.53 595.944 371.346 579.624C369.234 573.288 368.178 566.952 368.178 560.616C368.178 538.536 379.314 518.568 401.586 500.712C424.434 482.088 456.018 468.264 496.338 459.24C518.418 454.248 540.882 451.752 563.73 451.752C590.61 451.752 616.722 455.112 642.066 461.832C662.61 467.208 680.082 473.928 694.482 481.992L700.53 470.76C716.274 439.656 730.482 414.984 743.154 396.744C756.018 378.312 764.85 370.056 769.65 371.976C770.994 372.744 771.666 374.184 771.666 376.296C771.666 383.208 765.618 396.36 753.522 415.752C747.954 424.776 739.986 436.104 729.618 449.736C710.802 473.928 701.394 486.12 701.394 486.312C712.722 493.416 718.386 498.504 718.386 501.576C718.386 501.96 718.194 502.344 717.81 502.728C715.89 504.648 712.146 503.304 706.578 498.696C704.082 496.776 700.914 494.664 697.074 492.36C676.914 534.984 666.834 565.32 666.834 583.368C666.834 595.848 672.114 602.088 682.674 602.088C704.178 602.088 741.234 577.224 793.842 527.496C801.138 512.904 809.778 496.872 819.762 479.4C835.506 452.136 851.922 428.904 869.01 409.704C885.522 391.272 897.714 382.056 905.586 382.056C909.042 382.056 910.77 383.976 910.77 387.816ZM899.538 392.712C889.554 392.712 864.498 427.656 824.37 497.544C837.618 484.296 853.746 465.096 872.754 439.944C891.762 414.6 901.266 399.432 901.266 394.44C901.266 393.288 900.69 392.712 899.538 392.712ZM690.738 488.616C678.642 480.936 661.842 474.408 640.338 469.032C615.57 462.888 589.938 459.816 563.442 459.816C541.554 459.816 520.434 462.024 500.082 466.44C458.994 475.464 427.698 489.192 406.194 507.624C388.146 523.176 379.122 539.688 379.122 557.16C379.122 574.056 387.57 586.44 404.466 594.312C417.33 600.456 433.266 603.528 452.274 603.528C464.562 603.528 477.906 602.376 492.306 600.072C525.138 594.696 560.466 581.544 598.29 560.616C633.042 541.416 660.594 520.968 680.946 499.272C684.21 495.816 687.474 492.264 690.738 488.616ZM984.255 541.896C986.175 543.432 985.695 545.928 982.815 549.384C973.599 560.328 958.911 572.904 938.751 587.112C914.559 604.2 892.767 612.744 873.375 612.744C866.079 612.744 859.935 611.208 854.943 608.136C847.071 603.144 843.135 595.464 843.135 585.096C843.135 568.008 852.255 550.056 870.495 531.24C881.631 519.912 894.015 510.6 907.647 503.304C921.279 496.008 932.703 492.36 941.919 492.36C950.559 492.36 954.879 494.952 954.879 500.136C954.879 505.32 950.463 512.808 941.631 522.6C933.759 531.048 925.503 538.344 916.863 544.488C902.079 555.048 886.431 562.056 869.919 565.512C867.999 571.464 867.039 576.744 867.039 581.352C867.039 588.648 869.439 594.024 874.239 597.48C878.463 600.36 883.455 601.8 889.215 601.8C901.887 601.8 916.959 595.56 934.431 583.08C951.327 570.984 965.535 558.312 977.055 545.064C980.319 541.608 982.719 540.552 984.255 541.896ZM943.071 498.696C937.887 498.696 930.399 501.576 920.607 507.336C910.239 513.48 900.639 521.064 891.807 530.088C884.319 537.768 878.079 547.08 873.087 558.024C886.143 554.568 899.295 548.232 912.543 539.016C920.991 533.064 928.959 526.248 936.447 518.568C944.127 510.888 947.967 505.32 947.967 501.864C947.967 499.752 946.335 498.696 943.071 498.696ZM1075.9 548.52C1063.8 561 1049.5 573.48 1032.99 585.96C1006.87 605.736 985.273 613.704 968.185 609.864C953.785 606.6 946.585 597.384 946.585 582.216C946.585 576.456 948.121 570.792 951.193 565.224C954.841 558.888 959.353 556.104 964.729 556.872C968.761 553.224 974.425 547.752 981.721 540.456C988.249 534.696 996.121 526.824 1005.34 516.84C1006.49 514.92 1007.74 511.272 1009.08 505.896C1010.62 500.52 1012.63 495.912 1015.13 492.072C1018.59 486.888 1022.33 484.296 1026.36 484.296C1030.59 484.296 1032.7 486.696 1032.7 491.496C1032.7 496.104 1031.16 500.52 1028.09 504.744C1025.21 508.968 1020.99 513.576 1015.42 518.568C1014.84 520.68 1015.61 526.824 1017.72 537C1020.22 548.904 1021.47 558.216 1021.47 564.936C1021.47 575.304 1018.59 584.424 1012.83 592.296C1020.31 587.688 1028.19 582.024 1036.44 575.304C1051.42 563.208 1062.94 552.648 1071 543.624C1072.15 542.28 1073.31 541.608 1074.46 541.608C1076.57 541.608 1077.63 542.664 1077.63 544.776C1077.63 546.12 1077.05 547.368 1075.9 548.52ZM1006.78 534.984C1006.78 533.064 1006.49 530.568 1005.91 527.496L986.329 546.216C983.449 549.096 978.073 554.184 970.201 561.48C970.777 562.824 971.065 564.168 971.065 565.512C971.065 569.544 969.721 572.52 967.033 574.44C966.841 574.44 964.633 575.4 960.409 577.32C958.297 578.472 956.665 580.296 955.513 582.792C955.129 583.944 954.937 585.288 954.937 586.824C954.937 594.888 959.065 599.688 967.321 601.224C971.161 601.992 975.673 600.552 980.857 596.904C986.233 593.256 991.225 587.688 995.833 580.2C1003.13 567.912 1006.78 552.84 1006.78 534.984ZM1215.08 548.232C1206.83 558.216 1193.87 569.832 1176.2 583.08C1150.86 601.896 1133.29 610.632 1123.5 609.288C1113.13 607.944 1107.95 601.992 1107.95 591.432C1107.95 588.936 1108.33 586.344 1109.1 583.656C1093.74 601.32 1080.4 609.864 1069.07 609.288C1057.16 608.712 1051.21 601.416 1051.21 587.4C1051.21 574.344 1057.36 560.04 1069.64 544.488C1081.93 528.936 1096.52 516.072 1113.42 505.896C1128.97 496.872 1142.12 492.36 1152.88 492.36C1157.48 492.36 1161.13 493.416 1163.82 495.528C1166.51 497.64 1167.56 500.904 1166.99 505.32C1171.4 500.904 1174.09 498.312 1175.05 497.544C1176.01 496.776 1177.36 496.296 1179.08 496.104C1181 495.72 1182.54 495.72 1183.69 496.104C1184.84 496.296 1185.13 496.872 1184.56 497.832C1178.22 506.856 1167.47 522.696 1152.3 545.352C1138.67 566.472 1131.28 581.544 1130.12 590.568C1129.16 596.328 1130.8 599.208 1135.02 599.208C1142.32 599.208 1155.76 591.24 1175.34 575.304C1192.81 561.288 1204.52 550.536 1210.48 543.048C1211.24 542.088 1212.3 541.608 1213.64 541.608C1215.95 541.608 1217.1 542.568 1217.1 544.488C1217.1 545.64 1216.43 546.888 1215.08 548.232ZM1156.91 517.416C1159.21 514.536 1160.36 511.176 1160.36 507.336C1160.36 501.576 1157.58 498.696 1152.01 498.696C1146.06 498.696 1138.48 501.672 1129.26 507.624C1119.28 513.96 1109.68 522.408 1100.46 532.968C1079.72 556.392 1069.36 575.784 1069.36 591.144C1069.36 597.672 1071.56 600.936 1075.98 600.936C1080.97 600.936 1088.84 595.752 1099.6 585.384C1108.62 576.744 1116.78 567.528 1124.08 557.736C1133.29 545.448 1144.24 532.008 1156.91 517.416Z" fill="white"/>
</svg>
